<svg width="58" height="58" viewBox="0 0 58 58" fill="none" xmlns="http://www.w3.org/2000/svg">
<path d="M58 29C58 45.0163 45.0163 58 29 58C12.9837 58 0 45.0163 0 29C0 12.9837 12.9837 0 29 0C45.0163 0 58 12.9837 58 29Z" fill="white"/>
<path d="M29.5472 25.1698C29.5472 31.818 24.1577 37.2075 17.5094 37.2075C10.8612 37.2075 5.47168 31.818 5.47168 25.1698C5.47168 18.5215 10.8612 13.132 17.5094 13.132C24.1577 13.132 29.5472 18.5215 29.5472 25.1698Z" fill="#E5AD5A"/>
<path d="M47.0566 21.3396C47.0566 28.8944 40.9322 35.0188 33.3774 35.0188C25.8225 35.0188 19.6981 28.8944 19.6981 21.3396C19.6981 13.7847 25.8225 7.66032 33.3774 7.66032C40.9322 7.66032 47.0566 13.7847 47.0566 21.3396Z" fill="#5491A3"/>
<path d="M50.3397 35.0189C50.3397 44.0847 42.9904 51.434 33.9246 51.434C24.8588 51.434 17.5095 44.0847 17.5095 35.0189C17.5095 25.9531 24.8588 18.6038 33.9246 18.6038C42.9904 18.6038 50.3397 25.9531 50.3397 35.0189Z" fill="#BDD4DA"/>
<path fill-rule="evenodd" clip-rule="evenodd" d="M29.0001 50.3397C40.7856 50.3397 50.3397 40.7856 50.3397 29C50.3397 17.2145 40.7856 7.66041 29.0001 7.66041C17.2145 7.66041 7.66046 17.2145 7.66046 29C7.66046 40.7856 17.2145 50.3397 29.0001 50.3397ZM29.0001 53.6227C42.5988 53.6227 53.6227 42.5987 53.6227 29C53.6227 15.4013 42.5988 4.3774 29.0001 4.3774C15.4014 4.3774 4.37744 15.4013 4.37744 29C4.37744 42.5987 15.4014 53.6227 29.0001 53.6227Z" fill="black"/>
<path fill-rule="evenodd" clip-rule="evenodd" d="M23.1351 7.04078L22.233 7.66036L21.2976 7.09234L22.1765 5.64513L23.1351 7.04078ZM29.6496 19.7817C28.462 16.6806 27.1233 13.9394 25.9734 11.8068C25.1807 10.3366 24.475 9.15086 23.9659 8.33031C23.7113 7.91993 23.5057 7.60059 23.3627 7.38237C23.2912 7.27326 23.2354 7.1894 23.1969 7.13205L23.1523 7.06606L23.1402 7.04828L23.1368 7.04323L23.1357 7.04168C23.1353 7.04117 23.1351 7.04078 22.233 7.66036C21.2976 7.09234 21.2973 7.09295 21.2968 7.09369L21.2956 7.09573L21.2919 7.1019L21.2795 7.12249C21.2692 7.13986 21.2547 7.16445 21.2362 7.19606C21.1994 7.25925 21.147 7.35051 21.0815 7.46796C20.9506 7.70279 20.7674 8.04275 20.5522 8.47294C20.1223 9.33241 19.5622 10.5571 19.0367 12.0271C18.1445 14.5228 17.3279 17.792 17.4664 21.2086C15.242 21.8159 13.2187 22.5349 11.5186 23.2178C9.85034 23.8879 8.48361 24.5272 7.53132 25.0005C7.05497 25.2372 6.68176 25.4326 6.42577 25.5699C6.29776 25.6386 6.19901 25.6927 6.13128 25.7303C6.09741 25.7491 6.0713 25.7637 6.05315 25.7739L6.03194 25.7859L6.02586 25.7894L6.02397 25.7905C6.02334 25.7908 6.02284 25.7911 6.56596 26.7411C7.10907 27.6912 7.10882 27.6913 7.10871 27.6914L7.1091 27.6912L7.11214 27.6895L7.12721 27.6809L7.1927 27.6444C7.25184 27.6116 7.34165 27.5623 7.46037 27.4986C7.69784 27.3712 8.05081 27.1863 8.5053 26.9605C9.41466 26.5086 10.7282 25.894 12.3344 25.2488C13.8891 24.6243 15.709 23.9748 17.6952 23.4163C18.3664 27.3573 20.5204 31.254 25.2955 34.1645C26.8 35.0815 28.5579 35.8966 30.6028 36.586C30.3199 41.6945 28.5271 46.6286 24.192 50.6298L25.6765 52.2381C30.3834 47.8937 32.3576 42.6064 32.7529 37.2349C37.0654 38.3947 42.4828 39.0595 49.2452 39.0595H50.7258L50.2914 37.644C47.8982 29.8471 43.9105 25.104 39.1851 22.4706C36.1635 20.7868 32.8966 19.9969 29.6496 19.7817ZM27.2758 19.7223C26.2164 17.0759 25.0594 14.7233 24.047 12.8456C23.3854 11.6187 22.7874 10.5981 22.3218 9.8349C21.9542 10.5987 21.5141 11.5989 21.0976 12.7639C20.2957 15.0072 19.6029 17.8013 19.6412 20.6687C21.1398 20.3347 22.705 20.0656 24.3049 19.9003C25.2817 19.7994 26.2747 19.7369 27.2758 19.7223ZM19.8237 22.8715C21.336 22.5233 22.9172 22.244 24.5298 22.0774C25.7134 21.9551 26.9086 21.8941 28.102 21.9101C28.3523 22.616 28.5923 23.3375 28.8179 24.0719C29.8245 27.3482 30.5331 30.8263 30.6317 34.2772C29.0166 33.6897 27.6267 33.0222 26.4346 32.2956C22.1577 29.6887 20.3603 26.2839 19.8237 22.8715ZM32.8293 34.9852C32.8125 30.997 32.0159 27.0283 30.91 23.429C30.7669 22.9632 30.6183 22.5025 30.4652 22.0477C33.1206 22.3275 35.7224 23.0466 38.1196 24.3825C41.9926 26.5408 45.4505 30.3756 47.7299 36.8591C41.535 36.7627 36.6544 36.0722 32.8293 34.9852Z" fill="black"/>
</svg>
