<svg viewBox="0 0 360 256" fill="none" xmlns="http://www.w3.org/2000/svg">
<path d="M366.727 62.3369C288.973 -76.942 179.392 66.245 -20.7274 80.6932C-66.3408 62.337 -20.7274 244 -20.7274 244C0.60434 179.69 371.471 286.107 366.727 244C361.983 201.893 438.561 117.702 366.727 62.3369Z" fill="#C69167"/>
<path d="M366.727 62.3369C288.973 -76.942 179.392 66.245 -20.7274 80.6932C-66.3408 62.337 -20.7274 244 -20.7274 244C0.60434 179.69 371.471 286.107 366.727 244C361.983 201.893 438.561 117.702 366.727 62.3369Z" fill="#C69167"/>
<path d="M366.727 62.3369C288.973 -76.942 179.392 66.245 -20.7274 80.6932C-66.3408 62.337 -20.7274 244 -20.7274 244C0.60434 179.69 371.471 286.107 366.727 244C361.983 201.893 438.561 117.702 366.727 62.3369Z" stroke="white" stroke-width="3"/>
<path d="M366.727 62.3369C288.973 -76.942 179.392 66.245 -20.7274 80.6932C-66.3408 62.337 -20.7274 244 -20.7274 244C0.60434 179.69 371.471 286.107 366.727 244C361.983 201.893 438.561 117.702 366.727 62.3369Z" stroke="white" stroke-width="3"/>
</svg>
