<svg viewBox="0 0 296 187" fill="none" xmlns="http://www.w3.org/2000/svg" xmlns:xlink="http://www.w3.org/1999/xlink">
<path fill="#BDD4DA" opacity="1.000000" stroke="white" 
	d="
M1.000001,165.000000 
	C1.000000,118.645775 1.000000,72.291542 1.460391,25.471008 
	C6.888374,25.315477 11.869387,26.032164 16.821291,25.868443 
	C41.389717,25.056162 66.023491,24.864529 90.490013,22.769728 
	C108.907333,21.192850 127.168114,17.394833 145.377335,13.945503 
	C154.542618,12.209346 163.438187,9.049300 172.548874,6.507144 
	C172.922668,8.601173 173.155930,10.404402 173.572220,12.164328 
	C178.622345,33.513939 190.671936,51.024300 204.837585,67.057449 
	C224.481445,89.290993 247.960632,107.023270 273.123779,122.578453 
	C279.109985,126.278969 285.118042,129.944199 291.286774,133.730453 
	C279.685364,147.746124 265.742615,157.537582 250.081696,164.881561 
	C223.357727,177.413422 194.785599,182.574005 165.618942,183.791733 
	C140.221649,184.852051 114.718849,184.906769 89.457047,181.013519 
	C69.328667,177.911392 49.223484,174.636993 29.163576,171.121918 
	C19.708460,169.465103 10.383783,167.063904 1.000001,165.000000 
z" stroke-width="6" />
</svg>
