<svg width="360" height="209" viewBox="0 0 360 209" fill="none" xmlns="http://www.w3.org/2000/svg">
<path d="M-11 206.082C106.024 170.52 345.277 113.833 366.097 171.582C366.77 153.842 367.489 142.222 368.174 131.134L368.174 131.132C369.138 115.544 370.036 101.008 370.655 72.0001C79.1784 -60.3999 -5.2302 25.8608 -11 85.5412L-11 206.082Z" fill="#C69167"/>
<path d="M-11 206.082C106.024 170.52 345.277 113.833 366.097 171.582C366.77 153.842 367.489 142.222 368.174 131.134L368.174 131.132C369.138 115.544 370.036 101.008 370.655 72.0001C79.1784 -60.3999 -5.2302 25.8608 -11 85.5412L-11 206.082Z" stroke="white" stroke-width="3"/>
</svg>
